<?xml version="1.0" encoding="UTF-8" standalone="no"?>
<!-- Generator: Adobe Illustrator 16.0.0, SVG Export Plug-In . SVG Version: 6.00 Build 0)  -->

<svg
   version="1.1"
   id="Capa_1"
   x="0px"
   y="0px"
   width="99.380966"
   height="29.846973"
   viewBox="0 0 99.380962 29.846972"
   xml:space="preserve"
   sodipodi:docname="coupe-car-svgrepo-com.svg"
   inkscape:version="1.2.1 (9c6d41e410, 2022-07-14)"
   xmlns:inkscape="http://www.inkscape.org/namespaces/inkscape"
   xmlns:sodipodi="http://sodipodi.sourceforge.net/DTD/sodipodi-0.dtd"
   xmlns="http://www.w3.org/2000/svg"
   xmlns:svg="http://www.w3.org/2000/svg"><defs
   id="defs45" /><sodipodi:namedview
   id="namedview43"
   pagecolor="#ffffff"
   bordercolor="#666666"
   borderopacity="1.0"
   inkscape:showpageshadow="2"
   inkscape:pageopacity="0.0"
   inkscape:pagecheckerboard="0"
   inkscape:deskcolor="#d1d1d1"
   showgrid="false"
   inkscape:zoom="8.2409286"
   inkscape:cx="27.666785"
   inkscape:cy="14.986175"
   inkscape:window-width="1920"
   inkscape:window-height="987"
   inkscape:window-x="0"
   inkscape:window-y="32"
   inkscape:window-maximized="1"
   inkscape:current-layer="Capa_1" />
<g
   id="g10"
   transform="matrix(-1,0,0,1,99.380895,-34.767027)">
	<g
   id="g8">
		<path
   d="m 17.001,49.693 c -4.12,0 -7.46,3.338 -7.46,7.459 0,0.319 0.026,0.631 0.066,0.938 0.462,3.677 3.593,6.521 7.394,6.521 3.906,0 7.105,-3.002 7.429,-6.823 0.019,-0.211 0.032,-0.422 0.032,-0.638 0.001,-4.119 -3.339,-7.457 -7.461,-7.457 z m -3.737,4.649 1.522,1.521 c -0.119,0.203 -0.211,0.423 -0.271,0.656 H 12.37 c 0.113,-0.813 0.424,-1.552 0.894,-2.177 z m -0.9,3.47 h 2.16 c 0.062,0.229 0.15,0.447 0.27,0.646 l -1.524,1.524 c -0.472,-0.621 -0.791,-1.362 -0.906,-2.17 z m 3.992,3.975 c -0.809,-0.111 -1.543,-0.429 -2.164,-0.896 l 1.517,-1.518 c 0.199,0.116 0.418,0.201 0.647,0.262 z m 0,-7.115 c -0.235,0.062 -0.455,0.153 -0.66,0.274 l -1.521,-1.521 c 0.625,-0.475 1.366,-0.788 2.181,-0.901 z m 1.291,-2.148 c 0.813,0.113 1.555,0.428 2.18,0.902 l -1.52,1.52 c -0.205,-0.121 -0.426,-0.214 -0.66,-0.274 z m 0,9.262 v -2.151 c 0.229,-0.061 0.447,-0.146 0.646,-0.264 l 1.519,1.52 c -0.621,0.466 -1.356,0.784 -2.165,0.895 z m 3.091,-1.798 -1.53,-1.531 c 0.118,-0.199 0.217,-0.414 0.278,-0.646 h 2.144 c -0.114,0.809 -0.42,1.556 -0.892,2.177 z M 19.487,56.52 c -0.061,-0.233 -0.152,-0.453 -0.271,-0.656 l 1.522,-1.521 c 0.471,0.625 0.782,1.364 0.894,2.179 z"
   id="path2" />
		<path
   d="m 78.611,49.758 c -4.103,0 -7.428,3.324 -7.428,7.428 0,0.317 0.025,0.627 0.064,0.934 0.46,3.66 3.578,6.494 7.363,6.494 3.889,0 7.074,-2.989 7.396,-6.794 0.019,-0.21 0.032,-0.42 0.032,-0.634 0.002,-4.104 -3.323,-7.428 -7.427,-7.428 z m -3.72,4.629 1.516,1.516 c -0.118,0.202 -0.21,0.421 -0.27,0.653 h -2.136 c 0.111,-0.812 0.421,-1.547 0.89,-2.169 z m -0.897,3.455 h 2.15 c 0.062,0.229 0.15,0.444 0.269,0.644 l -1.519,1.52 c -0.467,-0.62 -0.786,-1.36 -0.9,-2.164 z m 3.975,3.959 c -0.805,-0.112 -1.535,-0.429 -2.154,-0.896 l 1.51,-1.51 c 0.198,0.115 0.417,0.201 0.645,0.26 v 2.146 z m 0,-7.086 c -0.233,0.061 -0.453,0.152 -0.656,0.272 l -1.514,-1.514 c 0.622,-0.471 1.36,-0.784 2.17,-0.897 z m 1.286,-2.139 c 0.812,0.113 1.549,0.428 2.17,0.898 l -1.513,1.513 c -0.204,-0.12 -0.423,-0.213 -0.657,-0.272 z m 0,9.224 v -2.145 c 0.229,-0.059 0.446,-0.146 0.645,-0.262 l 1.511,1.512 c -0.619,0.466 -1.35,0.782 -2.156,0.895 z m 3.077,-1.791 -1.523,-1.524 c 0.117,-0.199 0.216,-0.412 0.276,-0.643 h 2.134 c -0.113,0.804 -0.417,1.547 -0.887,2.167 z m -1.245,-3.454 c -0.06,-0.232 -0.15,-0.451 -0.27,-0.653 l 1.516,-1.516 c 0.469,0.622 0.778,1.357 0.889,2.169 z"
   id="path4" />
		<path
   d="M 99.352,52.001 C 99.326,51.018 99.021,50.06 98.47,49.242 l -0.402,-0.6 -1.757,-4.635 C 95.98,43.132 95.172,42.523 94.241,42.445 92.513,42.299 89.578,42.077 86.776,41.974 76.982,36.773 58.872,31.544 43.514,37.243 40.363,38.412 31.36,42.987 31.36,42.987 c 0,0 -14.62,-0.37 -25.047,3.349 -4.108,1.465 -6.699,5.543 -6.266,9.884 0.087,0.869 0.215,1.642 0.341,2.266 0.199,0.987 1.014,1.731 2.015,1.842 L 8.89,61.039 C 8.482,60.187 8.195,59.266 8.072,58.284 8.02,57.883 7.994,57.512 7.994,57.152 c 0,-4.967 4.041,-9.008 9.008,-9.008 4.968,0 9.01,4.042 9.01,9.008 0,0.26 -0.017,0.514 -0.038,0.768 -0.095,1.115 -0.399,2.172 -0.868,3.135 h 45.045 l 0.365,-0.021 c -0.4,-0.842 -0.683,-1.753 -0.804,-2.72 -0.052,-0.403 -0.077,-0.773 -0.077,-1.127 0,-4.95 4.026,-8.978 8.977,-8.978 4.951,0 8.978,4.026 8.978,8.978 0,0.259 -0.017,0.511 -0.038,0.764 -0.062,0.734 -0.223,1.438 -0.453,2.11 L 88.112,60 95.091,59.077 c 1.214,-0.161 2.285,-0.876 2.898,-1.936 l 0.695,-1.199 c 0.479,-0.83 0.721,-1.777 0.695,-2.735 z M 74.63,43.068 H 40.469 c 0,0 0.203,-0.809 -0.69,-1.786 0,0 8.733,-5.633 22.22,-4.226 3.711,0.388 8.246,0.651 14.42,3.86 z"
   id="path6" />
	</g>
</g>
</svg>
