<?xml version="1.0" encoding="UTF-8" standalone="no"?>
<svg
   width="251.76935pt"
   height="348.55319pt"
   version="1.1"
   viewBox="0 0 251.76935 348.55319"
   id="svg4"
   sodipodi:docname="flag.svg"
   inkscape:version="1.2.1 (9c6d41e410, 2022-07-14)"
   xmlns:inkscape="http://www.inkscape.org/namespaces/inkscape"
   xmlns:sodipodi="http://sodipodi.sourceforge.net/DTD/sodipodi-0.dtd"
   xmlns="http://www.w3.org/2000/svg"
   xmlns:svg="http://www.w3.org/2000/svg">
  <defs
     id="defs8" />
  <sodipodi:namedview
     id="namedview6"
     pagecolor="#ffffff"
     bordercolor="#666666"
     borderopacity="1.0"
     inkscape:showpageshadow="2"
     inkscape:pageopacity="0.0"
     inkscape:pagecheckerboard="0"
     inkscape:deskcolor="#d1d1d1"
     inkscape:document-units="pt"
     showgrid="false"
     inkscape:zoom="0.81682181"
     inkscape:cx="-210.57224"
     inkscape:cy="158.54131"
     inkscape:window-width="1920"
     inkscape:window-height="987"
     inkscape:window-x="0"
     inkscape:window-y="32"
     inkscape:window-maximized="1"
     inkscape:current-layer="svg4" />
  <path
     d="m 249.1,44.9879 c -71.984,-31.73 -143.5,33.625 -215.48,4.2617 v -4.7344 c 7.1055,-1.8945 11.84,-8.5234 11.84,-15.629 V 22.73 C 45.46,10.418 35.5147,0 22.73,0 9.945,0 0,9.9453 0,22.73 v 6.1562 c 0,7.5781 5.2109,13.734 11.84,15.629 v 293.62 c 0,5.6836 4.7344,10.418 10.418,10.418 5.6836,0 10.418,-4.7344 10.418,-10.418 l -0.004,-158.18 c 71.984,29.363 143.5,-35.992 215.48,-4.2617 1.8945,0.94531 3.3164,0 3.3164,-1.8945 V 50.189 c 0.94531,-1.8945 -0.47266,-4.2617 -2.3672,-5.207 z M 7.57,28.8859 v -6.1562 c 0,-8.5234 7.1055,-15.629 15.629,-15.629 8.5234,0 15.629,7.1055 15.629,15.629 v 6.1562 c 0,5.2109 -4.2617,9.4727 -9.4727,9.4727 H 17.0433 C 11.8324,38.3546 7.5706,34.093 7.5706,28.8859 Z m 18.941,309.25 c 0,1.8945 -1.4219,3.7891 -3.7891,3.7891 -2.3672,0 -3.7891,-1.4219 -3.7891,-3.7891 l 0.004,-293.14 h 7.1055 l -0.004,293.14 z m 218.8,-170.96 c -8.9961,-3.7891 -18.469,-5.6836 -27.469,-6.6289 v -27.469 c -10.418,-0.94531 -20.836,-0.94531 -31.258,0.47266 v 27.469 c -10.418,1.4219 -20.836,3.3164 -31.258,5.6836 v -27.469 c -10.418,2.3672 -20.836,5.2109 -31.258,7.5781 v 27.469 c -10.418,2.3672 -20.836,4.2617 -31.258,5.6836 v -27.469 c -10.418,1.4219 -20.836,1.4219 -31.258,0.47266 v 27.469 c -8.9961,-0.94531 -18.469,-3.3164 -27.469,-6.6289 v -27.469 c 8.9961,3.7891 18.469,5.6836 27.469,6.6289 v -30.309 c 10.418,0.94531 20.836,0.94531 31.258,-0.47266 v 30.309 c 10.418,-1.4219 20.836,-3.3164 31.258,-5.6836 v -30.309 c 10.418,-2.3672 20.836,-5.2109 31.258,-7.5781 v 30.309 c 10.418,-2.3672 20.836,-4.2617 31.258,-5.6836 v -30.309 c 10.418,-1.4219 20.836,-1.4219 31.258,-0.47266 v 30.309 c 8.9961,0.94531 18.469,3.3164 27.469,6.6289 z m 0,-59.199 c -8.9961,-3.7891 -18.469,-5.6836 -27.469,-6.6289 V 71.039 c -10.418,-0.94531 -20.836,-0.94531 -31.258,0.47266 v 30.309 c -10.418,1.4219 -20.836,3.3164 -31.258,5.6836 v -30.309 c -10.418,2.3672 -20.836,5.2109 -31.258,7.5781 v 30.309 c -10.418,2.3672 -20.836,4.2617 -31.258,5.6836 v -30.309 c -10.418,1.4219 -20.836,1.4219 -31.258,0.47266 v 30.309 c -8.9961,-0.94531 -18.469,-3.3164 -27.469,-6.6289 v -30.309 c 8.9961,3.7891 18.469,5.6836 27.469,6.6289 v -27.469 c 10.418,0.94531 20.836,0.94531 31.258,-0.47266 v 27.469 c 10.418,-1.4219 20.836,-3.3164 31.258,-5.6836 v -27.469 c 10.418,-2.3672 20.836,-5.2109 31.258,-7.5781 v 27.469 c 10.418,-2.3672 20.836,-4.2617 31.258,-5.6836 v -27.469 c 10.418,-1.4219 20.836,-1.4219 31.258,-0.47266 v 27.469 c 8.9961,0.94531 18.469,3.3164 27.469,6.6289 z"
     id="path2" />
  <path
     style="opacity:0.999;fill:#ffffff;fill-opacity:0.490196;fill-rule:evenodd;stroke-width:1.37729"
     d="M 12.685142,36.64491 C 9.3882175,34.817565 8.06173,31.643535 8.0256475,25.495657 7.944415,11.653672 19.51729,3.5222925 30.470125,9.72564 c 5.218065,2.955345 7.78941,7.948357 7.80825,15.161962 0.01732,6.640215 -1.544258,10.362923 -5.009303,11.941695 -3.276577,1.492913 -17.792317,1.362878 -20.58393,-0.184387 z"
     id="path252" />
  <path
     style="opacity:0.999;fill:#ffffff;fill-opacity:0.490196;fill-rule:evenodd;stroke-width:1.37729"
     d="M 20.454302,340.40523 C 19.154628,339.10555 19.01143,324.38853 19.01143,192.11707 V 45.271792 h 3.208102 3.208103 l 0.235117,147.074888 c 0.241628,151.14142 0.274298,149.50143 -2.97855,149.50143 -0.432862,0 -1.436317,-0.64929 -2.2299,-1.44288 z"
     id="path254" />
  <path
     style="opacity:0.999;fill:#ffffff;fill-opacity:0.490196;fill-rule:evenodd;stroke-width:1.37729"
     d="M 63.773335,90.548505 C 62.338187,90.17346 62.16673,88.73775 62.16871,77.11167 l 0.0023,-13.016918 15.147967,-0.02123 15.147968,-0.02123 v 12.97758 12.977573 l -4.820513,0.579015 c -5.352322,0.642885 -21.3651,0.617422 -23.873017,-0.03795 z"
     id="path256" />
  <path
     style="opacity:0.999;fill:#ffffff;fill-opacity:0.490196;fill-rule:evenodd;stroke-width:1.37729"
     d="M 124.60361,70.684507 V 57.533115 l 14.46154,-3.400988 c 7.95385,-1.870545 14.77143,-3.389782 15.15018,-3.37608 0.37876,0.01373 0.68357,5.91282 0.67736,13.109153 l -0.0112,13.084252 -14.45025,3.4557 c -7.94764,1.900643 -14.76015,3.45009 -15.1389,3.443228 -0.37875,-0.0068 -0.68865,-5.93061 -0.68865,-13.163873 z"
     id="path258" />
  <path
     style="opacity:0.999;fill:#ffffff;fill-opacity:0.490196;fill-rule:evenodd;stroke-width:1.37729"
     d="m 187.04049,57.503917 2.4e-4,-13.018177 4.82051,-0.580253 c 2.65128,-0.31914 9.36557,-0.452167 14.92064,-0.29562 l 10.10012,0.28464 0.24933,13.313798 0.24934,13.313797 h -15.17021 -15.17022 z"
     id="path260" />
  <path
     style="opacity:0.999;fill:#ffffff;fill-opacity:0.490196;fill-rule:evenodd;stroke-width:1.37729"
     d="m 235.70495,104.47177 c -3.78754,-1.15138 -9.26226,-2.38077 -12.16605,-2.73197 l -5.27961,-0.63855 V 86.50032 c 0,-14.539133 0.009,-14.600798 2.06593,-14.568675 2.56556,0.04005 11.23409,1.920577 18.82296,4.083375 l 5.73871,1.635517 V 92.22063 c 0,11.10408 -0.27303,14.54326 -1.14775,14.45733 -0.63125,-0.062 -4.24664,-1.0548 -8.03419,-2.20619 z"
     id="path262" />
  <path
     style="opacity:0.999;fill:#ffffff;fill-opacity:0.490196;fill-rule:evenodd;stroke-width:1.37729"
     d="m 242.1323,165.43303 c -2.44283,-0.98313 -14.69631,-3.91387 -20.42979,-4.88633 l -3.44322,-0.584 v -13.21447 -13.21446 l 3.44322,0.49844 c 4.52283,0.65471 13.36774,2.79478 18.82296,4.55431 l 4.36142,1.40673 v 13.24001 c 0,7.282 -0.1033,13.21381 -0.22955,13.1818 -0.12625,-0.032 -1.26252,-0.47392 -2.52504,-0.98203 z"
     id="path264" />
  <path
     style="opacity:0.999;fill:#ffffff;fill-opacity:0.490196;fill-rule:evenodd;stroke-width:1.37729"
     d="m 187.04073,118.46034 v -15.06635 l 8.95238,-0.58535 c 4.92381,-0.32194 11.7414,-0.3243 15.15018,-0.005 l 6.19781,0.5801 v 14.49693 14.49694 l -14.20058,-0.0122 c -7.81032,-0.007 -14.6279,0.25187 -15.15018,0.57465 -0.63928,0.3951 -0.94961,-4.33677 -0.94961,-14.47946 z"
     id="path266" />
  <path
     style="opacity:0.999;fill:#ffffff;fill-opacity:0.490196;fill-rule:evenodd;stroke-width:1.37729"
     d="m 156.02799,152.80105 0.25328,-13.38698 10.10012,-2.02516 c 5.55507,-1.11385 12.26935,-2.30391 14.92063,-2.64459 l 4.82052,-0.61941 v 13.27176 13.27175 l -7.81281,1.16235 c -4.29705,0.63929 -11.1253,1.88121 -15.17391,2.75981 l -7.3611,1.59746 z"
     id="path268" />
  <path
     style="opacity:0.999;fill:#ffffff;fill-opacity:0.490196;fill-rule:evenodd;stroke-width:1.37729"
     d="m 124.60361,131.67919 v -14.71757 l 3.44322,-0.90318 c 3.90153,-1.0234 20.50371,-5.09808 24.33212,-5.97184 l 2.52503,-0.57629 v 14.64671 c 0,13.15368 -0.1638,14.69579 -1.60684,15.12822 -0.88376,0.26483 -6.97827,1.74843 -13.54335,3.29687 -6.56508,1.54844 -12.65958,3.0402 -13.54334,3.31501 -1.48427,0.46153 -1.60684,-0.62298 -1.60684,-14.21793 z"
     id="path270" />
  <path
     style="opacity:0.999;fill:#ffffff;fill-opacity:0.490196;fill-rule:evenodd;stroke-width:1.37729"
     d="m 93.385052,166.07042 v -13.25753 l 4.361423,-0.61165 c 6.185335,-0.86744 22.970005,-4.06722 24.584295,-4.68667 1.15587,-0.44355 1.35465,1.44303 1.35465,12.85681 v 13.37664 l -3.44322,0.91121 c -3.35085,0.88677 -24.459368,4.66873 -26.05788,4.66873 -0.439598,0 -0.799268,-5.96589 -0.799268,-13.25754 z"
     id="path272" />
  <path
     style="opacity:0.999;fill:#ffffff;fill-opacity:0.490196;fill-rule:evenodd;stroke-width:1.37729"
     d="m 93.59245,105.57134 0.2517,-14.746085 11.47741,-2.00751 c 6.31258,-1.104135 13.02687,-2.309543 14.92064,-2.678678 l 3.44322,-0.67116 v 14.689643 14.68965 l -12.62515,2.33729 c -6.94384,1.28551 -13.771385,2.51631 -15.17234,2.73512 l -2.547188,0.39782 z"
     id="path274" />
  <path
     style="opacity:0.999;fill:#ffffff;fill-opacity:0.490196;fill-rule:evenodd;stroke-width:1.37729"
     d="m 68.823392,152.88969 -6.656895,-0.26978 V 137.96905 123.3182 h 13.697798 c 7.533787,0 14.35137,-0.25081 15.15018,-0.55734 1.287412,-0.49402 1.45239,1.12583 1.45239,14.26081 0,11.04772 -0.292043,14.91101 -1.147748,15.18313 -1.807155,0.57469 -15.173362,0.98163 -22.495725,0.68489 z"
     id="path276" />
  <path
     style="opacity:0.999;fill:#ffffff;fill-opacity:0.490196;fill-rule:evenodd;stroke-width:1.37729"
     d="M 54.361855,178.8189 C 50.826812,178.21758 44.9389,176.82907 41.27761,175.73332 l -6.656903,-1.99228 v -13.37315 c 0,-12.3834 0.11892,-13.3228 1.606838,-12.69278 3.250447,1.37631 17.95257,5.02568 20.301757,5.03932 4.630688,0.0268 4.790648,0.53523 4.51563,14.35087 l -0.255727,12.8469 z"
     id="path278" />
  <path
     style="opacity:0.999;fill:#ffffff;fill-opacity:0.490196;fill-rule:evenodd;stroke-width:1.37729"
     d="m 93.385052,166.07042 v -13.25753 l 4.361423,-0.61165 c 6.185335,-0.86744 22.970005,-4.06722 24.584295,-4.68667 1.15587,-0.44355 1.35465,1.44303 1.35465,12.85681 v 13.37664 l -3.44322,0.91121 c -3.35085,0.88677 -24.459368,4.66873 -26.05788,4.66873 -0.439598,0 -0.799268,-5.96589 -0.799268,-13.25754 z"
     id="path280" />
  <path
     style="opacity:0.999;fill:#ffffff;fill-opacity:0.490196;fill-rule:evenodd;stroke-width:1.37729"
     d="m 49.770895,118.71553 c -4.040055,-0.93129 -8.998298,-2.28045 -11.018318,-2.99814 l -3.672772,-1.30488 -0.25191,-14.749495 -0.25191,-14.749493 4.622415,1.75638 c 2.542328,0.966008 8.543603,2.451165 13.336163,3.300345 l 8.71374,1.543958 v 14.524705 c 0,16.84491 1.140495,15.58524 -11.477408,12.67662 z"
     id="path282" />
  <path
     style="opacity:0.999;fill:#ffffff;fill-opacity:0.490196;fill-rule:evenodd;stroke-width:1.37729"
     d="M 20.454302,340.40523 C 19.154628,339.10555 19.01143,324.38853 19.01143,192.11707 V 45.271792 h 3.208102 3.208103 l 0.235117,147.074888 c 0.241628,151.14142 0.274298,149.50143 -2.97855,149.50143 -0.432862,0 -1.436317,-0.64929 -2.2299,-1.44288 z"
     id="path304" />
  <path
     style="opacity:0.999;fill:#ffffff;fill-opacity:0.490196;fill-rule:evenodd;stroke-width:1.37729"
     d="M 20.454302,340.40523 C 19.154628,339.10555 19.01143,324.38853 19.01143,192.11707 V 45.271792 h 3.208102 3.208103 l 0.235117,147.074888 c 0.241628,151.14142 0.274298,149.50143 -2.97855,149.50143 -0.432862,0 -1.436317,-0.64929 -2.2299,-1.44288 z"
     id="path306" />
  <path
     style="opacity:0.999;fill:#ffffff;fill-opacity:0.490196;fill-rule:evenodd;stroke-width:1.37729"
     d="M 20.454302,340.40523 C 19.154628,339.10555 19.01143,324.38853 19.01143,192.11707 V 45.271792 h 3.208102 3.208103 l 0.235117,147.074888 c 0.241628,151.14142 0.274298,149.50143 -2.97855,149.50143 -0.432862,0 -1.436317,-0.64929 -2.2299,-1.44288 z"
     id="path308" />
  <path
     style="opacity:0.999;fill:#ffffff;fill-opacity:0.490196;fill-rule:evenodd;stroke-width:1.37729"
     d="M 20.454302,340.40523 C 19.154628,339.10555 19.01143,324.38853 19.01143,192.11707 V 45.271792 h 3.208102 3.208103 l 0.235117,147.074888 c 0.241628,151.14142 0.274298,149.50143 -2.97855,149.50143 -0.432862,0 -1.436317,-0.64929 -2.2299,-1.44288 z"
     id="path310" />
  <path
     style="opacity:0.999;fill:#ffffff;fill-opacity:0.490196;fill-rule:evenodd;stroke-width:1.37729"
     d="M 20.454302,340.40523 C 19.154628,339.10555 19.01143,324.38853 19.01143,192.11707 V 45.271792 h 3.208102 3.208103 l 0.235117,147.074888 c 0.241628,151.14142 0.274298,149.50143 -2.97855,149.50143 -0.432862,0 -1.436317,-0.64929 -2.2299,-1.44288 z"
     id="path312" />
  <path
     style="opacity:0.999;fill:#ffffff;fill-opacity:0.490196;fill-rule:evenodd;stroke-width:1.37729"
     d="M 20.454302,340.40523 C 19.154628,339.10555 19.01143,324.38853 19.01143,192.11707 V 45.271792 h 3.208102 3.208103 l 0.235117,147.074888 c 0.241628,151.14142 0.274298,149.50143 -2.97855,149.50143 -0.432862,0 -1.436317,-0.64929 -2.2299,-1.44288 z"
     id="path314" />
  <path
     style="opacity:0.999;fill:#ffffff;fill-opacity:0.490196;fill-rule:evenodd;stroke-width:1.37729"
     d="M 20.454302,340.40523 C 19.154628,339.10555 19.01143,324.38853 19.01143,192.11707 V 45.271792 h 3.208102 3.208103 l 0.235117,147.074888 c 0.241628,151.14142 0.274298,149.50143 -2.97855,149.50143 -0.432862,0 -1.436317,-0.64929 -2.2299,-1.44288 z"
     id="path316" />
  <path
     style="opacity:0.999;fill:#ffffff;fill-opacity:0.490196;fill-rule:evenodd;stroke-width:1.37729"
     d="M 20.454302,340.40523 C 19.154628,339.10555 19.01143,324.38853 19.01143,192.11707 V 45.271792 h 3.208102 3.208103 l 0.235117,147.074888 c 0.241628,151.14142 0.274298,149.50143 -2.97855,149.50143 -0.432862,0 -1.436317,-0.64929 -2.2299,-1.44288 z"
     id="path318" />
  <path
     style="opacity:0.999;fill:#ffffff;fill-opacity:0.490196;fill-rule:evenodd;stroke-width:1.37729"
     d="M 20.454302,340.40523 C 19.154628,339.10555 19.01143,324.38853 19.01143,192.11707 V 45.271792 h 3.208102 3.208103 l 0.235117,147.074888 c 0.241628,151.14142 0.274298,149.50143 -2.97855,149.50143 -0.432862,0 -1.436317,-0.64929 -2.2299,-1.44288 z"
     id="path320" />
  <path
     style="opacity:0.999;fill:#ffffff;fill-opacity:0.490196;fill-rule:evenodd;stroke-width:1.37729"
     d="M 12.685142,36.64491 C 9.3882175,34.817565 8.06173,31.643535 8.0256475,25.495657 7.9458625,11.8995 18.987212,3.828795 29.989,9.4414875 c 5.498212,2.8049775 7.745767,6.6657595 8.161275,14.0192025 0.417825,7.39446 -0.916943,11.26242 -4.531492,13.13157 -3.344813,1.729672 -17.84214,1.76613 -20.933641,0.05265 z"
     id="path351" />
  <path
     style="opacity:0.999;fill:#ffffff;fill-opacity:0.490196;fill-rule:evenodd;stroke-width:1.37729"
     d="M 12.685142,36.64491 C 9.3882175,34.817565 8.06173,31.643535 8.0256475,25.495657 7.9600975,14.323395 14.516298,7.1967375 24.2248,7.8870375 c 8.93571,0.635355 14.06868,6.8886525 14.06868,17.1393295 0,6.49854 -1.592363,10.239188 -5.024408,11.80293 -3.276577,1.492913 -17.792317,1.362878 -20.58393,-0.184387 z"
     id="path353" />
  <path
     style="opacity:0.999;fill:#ffffff;fill-opacity:0.490196;fill-rule:evenodd;stroke-width:1.37729"
     d="M 12.685142,36.64491 C 9.3862,34.816447 8.0595325,31.638187 8.045815,25.530645 c -0.0153,-6.818843 2.298427,-12.246375 6.497205,-15.24102 4.597312,-3.2788875 13.013355,-3.1497 17.49492,0.26856 4.407405,3.361695 6.25554,7.636162 6.25554,14.468182 0,6.49854 -1.592363,10.239188 -5.024408,11.80293 -3.276577,1.492913 -17.792317,1.362878 -20.58393,-0.184387 z"
     id="path355" />
  <path
     style="opacity:0.999;fill:#ffffff;fill-opacity:0.490196;fill-rule:evenodd;stroke-width:1.37729"
     d="M 54.361855,178.8189 C 50.826812,178.21758 44.9389,176.82907 41.27761,175.73332 l -6.656903,-1.99228 v -13.37315 c 0,-11.00496 0.224798,-13.28689 1.26942,-12.88603 4.85937,1.86471 13.8393,4.22035 18.13386,4.75692 2.80818,0.35086 5.594235,0.93981 6.191228,1.30877 0.771945,0.47709 1.011592,4.38134 0.829717,13.51775 l -0.255727,12.8469 z"
     id="path389" />
  <path
     style="opacity:0.999;fill:#ffffff;fill-opacity:0.490196;fill-rule:evenodd;stroke-width:1.37729"
     d="m 156.02799,152.80105 0.25328,-13.38698 10.10012,-2.02516 c 5.55507,-1.11385 12.26935,-2.30391 14.92063,-2.64459 l 4.82052,-0.61941 v 13.27176 13.27175 l -7.81281,1.16235 c -4.29705,0.63929 -11.1253,1.88121 -15.17391,2.75981 l -7.3611,1.59746 z"
     id="path424" />
  <path
     style="opacity:0.999;fill:#ffffff;fill-opacity:0.490196;fill-rule:evenodd;stroke-width:1.37729"
     d="m 242.1323,165.43303 c -2.44283,-0.98313 -14.69631,-3.91387 -20.42979,-4.88633 l -3.44322,-0.584 v -13.3138 -13.3138 l 3.44322,0.59134 c 4.98065,0.85538 13.7847,3.03504 18.82296,4.66008 l 4.36142,1.40673 v 13.24001 c 0,7.28199 -0.1033,13.21381 -0.22955,13.1818 -0.12625,-0.032 -1.26252,-0.47392 -2.52504,-0.98203 z"
     id="path426" />
  <path
     style="opacity:0.999;fill:#ffffff;fill-opacity:0.490196;fill-rule:evenodd;stroke-width:1.37729"
     d="m 187.04073,118.45756 v -15.06915 l 9.41148,-0.60636 c 5.17631,-0.3335 11.9939,-0.33549 15.15018,-0.004 l 5.73871,0.60194 v 14.50627 14.50627 h -14.23228 c -7.82776,0 -14.64534,0.25529 -15.15019,0.5673 -0.5975,0.36929 -0.9179,-4.6927 -0.9179,-14.50183 z"
     id="path428" />
  <path
     style="opacity:0.999;fill:#ffffff;fill-opacity:0.490196;fill-rule:evenodd;stroke-width:1.37729"
     d="m 124.60361,131.67919 v -14.71757 l 3.44322,-0.90318 c 3.90153,-1.0234 20.50371,-5.09808 24.33212,-5.97184 l 2.52503,-0.57629 v 14.67319 14.67319 l -3.44323,0.91224 c -1.89377,0.50174 -7.98828,1.97428 -13.54334,3.27231 -5.55507,1.29804 -10.82319,2.58405 -11.70696,2.8578 -1.48419,0.45973 -1.60684,-0.62563 -1.60684,-14.21985 z"
     id="path430" />
  <path
     style="opacity:0.999;fill:#ffffff;fill-opacity:0.490196;fill-rule:evenodd;stroke-width:1.37729"
     d="m 68.823392,152.88969 -6.656895,-0.26978 V 137.96905 123.3182 h 13.697798 c 7.533787,0 14.35137,-0.25081 15.15018,-0.55734 1.287412,-0.49402 1.45239,1.12583 1.45239,14.26081 0,11.04772 -0.292043,14.91101 -1.147748,15.18313 -1.807155,0.57469 -15.173362,0.98163 -22.495725,0.68489 z"
     id="path432" />
  <path
     style="opacity:0.999;fill:#ffffff;fill-opacity:0.490196;fill-rule:evenodd;stroke-width:1.37729"
     d="m 49.770895,118.71553 c -4.040055,-0.93129 -8.998298,-2.28045 -11.018318,-2.99814 L 35.079805,114.41251 34.828247,99.737062 34.57669,85.06161 l 6.28206,2.048002 c 3.45513,1.126395 9.456248,2.56005 13.335802,3.185888 l 7.05375,1.137892 V 105.9985 c 0,16.89153 1.142138,15.62604 -11.477407,12.71703 z"
     id="path434" />
  <path
     style="opacity:0.999;fill:#ffffff;fill-opacity:0.490196;fill-rule:evenodd;stroke-width:1.37729"
     d="m 93.59245,105.57134 0.2517,-14.746085 11.47741,-2.00751 c 6.31258,-1.104135 13.02687,-2.309543 14.92064,-2.678678 l 3.44322,-0.67116 v 14.689643 14.68965 l -12.62515,2.33729 c -6.94384,1.28551 -13.771385,2.51631 -15.17234,2.73512 l -2.547188,0.39782 z"
     id="path436" />
  <path
     style="opacity:0.999;fill:#ffffff;fill-opacity:0.490196;fill-rule:evenodd;stroke-width:1.37729"
     d="m 155.82217,92.298712 c 0,-14.47056 0.031,-14.698815 2.06593,-15.205815 2.12499,-0.529447 27.12371,-5.19351 27.83647,-5.19351 0.21888,0 0.39797,6.60312 0.39797,14.673593 0,14.48423 -0.0266,14.67885 -2.06594,15.08096 -1.13626,0.22405 -7.02417,1.28762 -13.08424,2.36347 -6.06008,1.07585 -11.94799,2.18476 -13.08426,2.46424 l -2.06593,0.50815 z"
     id="path438" />
  <path
     style="opacity:0.999;fill:#ffffff;fill-opacity:0.490196;fill-rule:evenodd;stroke-width:1.37729"
     d="m 235.70495,104.47177 c -3.78754,-1.15138 -9.26226,-2.38077 -12.16605,-2.73197 l -5.27961,-0.63855 V 86.50032 c 0,-14.539133 0.009,-14.600798 2.06593,-14.568675 2.56556,0.04005 11.23409,1.920577 18.82296,4.083375 l 5.73871,1.635517 V 92.22063 c 0,11.10408 -0.27303,14.54326 -1.14775,14.45733 -0.63125,-0.062 -4.24664,-1.0548 -8.03419,-2.20619 z"
     id="path440" />
  <path
     style="opacity:0.999;fill:#ffffff;fill-opacity:0.490196;fill-rule:evenodd;stroke-width:1.37729"
     d="M 187.04073,57.523792 V 44.48574 l 4.82051,-0.580253 c 2.65128,-0.31914 9.36557,-0.452167 14.92064,-0.29562 l 10.10012,0.28464 0.24842,13.313798 0.24842,13.313797 -15.16906,0.01987 -15.16905,0.01987 z"
     id="path442" />
  <path
     style="opacity:0.999;fill:#ffffff;fill-opacity:0.490196;fill-rule:evenodd;stroke-width:1.37729"
     d="M 124.60361,70.700182 V 57.564465 l 14.03936,-3.391755 c 7.72164,-1.865468 14.53922,-3.391755 15.15018,-3.391755 0.81712,0 1.11083,3.46692 1.11083,13.112085 v 13.112085 l -14.46154,3.418057 c -7.95384,1.879928 -14.77143,3.41685 -15.15018,3.415388 -0.37875,-0.0015 -0.68865,-5.913743 -0.68865,-13.138388 z"
     id="path444" />
  <path
     style="opacity:0.999;fill:#ffffff;fill-opacity:0.490196;fill-rule:evenodd;stroke-width:1.37729"
     d="M 63.773335,90.548505 C 62.338187,90.17346 62.16673,88.73775 62.16871,77.11167 l 0.0023,-13.016918 15.147967,-0.02123 15.147968,-0.02123 v 12.97758 12.977573 l -4.820513,0.579015 c -5.352322,0.642885 -21.3651,0.617422 -23.873017,-0.03795 z"
     id="path446" />
  <path
     style="opacity:0.999;fill:#ffffff;fill-opacity:0.490196;fill-rule:evenodd;stroke-width:1.37729"
     d="m 155.82217,92.298712 c 0,-14.47056 0.031,-14.698815 2.06593,-15.205815 2.12499,-0.529447 27.12371,-5.19351 27.83647,-5.19351 0.21888,0 0.39797,6.60312 0.39797,14.673593 0,14.48423 -0.0266,14.67885 -2.06594,15.08096 -1.13626,0.22405 -7.02417,1.28762 -13.08424,2.36347 -6.06008,1.07585 -11.94799,2.18476 -13.08426,2.46424 l -2.06593,0.50815 z"
     id="path493" />
  <path
     style="opacity:0.999;fill:#ffffff;fill-opacity:0.490196;fill-rule:evenodd;stroke-width:1.37729"
     d="M 63.773335,90.548505 C 62.338187,90.17346 62.16673,88.73775 62.16871,77.11167 l 0.0023,-13.016918 15.147967,-0.02123 15.147968,-0.02123 v 12.97758 12.977573 l -4.820513,0.579015 c -5.352322,0.642885 -21.3651,0.617422 -23.873017,-0.03795 z"
     id="path541" />
  <path
     style="opacity:0.999;fill:#ffffff;fill-opacity:0.490196;fill-rule:evenodd;stroke-width:1.37729"
     d="M 124.60361,70.700182 V 57.564465 l 14.03936,-3.391755 c 7.72164,-1.865468 14.53922,-3.391755 15.15018,-3.391755 0.81712,0 1.11083,3.46692 1.11083,13.112085 v 13.112085 l -14.46154,3.418057 c -7.95384,1.879928 -14.77143,3.41685 -15.15018,3.415388 -0.37875,-0.0015 -0.68865,-5.913743 -0.68865,-13.138388 z"
     id="path543" />
  <path
     style="opacity:0.999;fill:#ffffff;fill-opacity:0.490196;fill-rule:evenodd;stroke-width:1.37729"
     d="M 187.04073,57.523792 V 44.48574 l 4.82051,-0.580253 c 2.65128,-0.31914 9.36557,-0.452167 14.92064,-0.29562 l 10.10012,0.28464 0.24842,13.313798 0.24842,13.313797 -15.16906,0.01987 -15.16905,0.01987 z"
     id="path545" />
  <path
     style="opacity:0.999;fill:#ffffff;fill-opacity:0.490196;fill-rule:evenodd;stroke-width:1.37729"
     d="m 237.54134,104.95408 c -2.77753,-0.90653 -8.25225,-2.17815 -12.16605,-2.82582 l -7.116,-1.17757 V 86.425042 71.899387 l 2.52503,0.0141 c 2.39004,0.01335 12.89929,2.429153 20.58674,4.732373 l 3.51583,1.053367 v 14.545748 c 0,11.074705 -0.27389,14.523265 -1.14775,14.451545 -0.63125,-0.0518 -3.42026,-0.8359 -6.1978,-1.74244 z"
     id="path547" />
  <path
     style="opacity:0.999;fill:#ffffff;fill-opacity:0.490196;fill-rule:evenodd;stroke-width:1.37729"
     d="m 155.82217,92.298712 c 0,-14.47056 0.031,-14.698815 2.06593,-15.205815 2.12499,-0.529447 27.12371,-5.19351 27.83647,-5.19351 0.21888,0 0.39797,6.60312 0.39797,14.673593 0,14.47972 -0.0273,14.67918 -2.06594,15.09616 -1.13626,0.23242 -7.02417,1.29804 -13.08424,2.36805 -6.06008,1.07 -11.94799,2.17207 -13.08426,2.44903 l -2.06593,0.50358 z"
     id="path549" />
  <path
     style="opacity:0.999;fill:#ffffff;fill-opacity:0.490196;fill-rule:evenodd;stroke-width:1.37729"
     d="m 93.59245,105.57134 0.2517,-14.746085 11.47741,-2.00751 c 6.31258,-1.104135 13.02687,-2.309543 14.92064,-2.678678 l 3.44322,-0.67116 v 14.689643 14.68965 l -12.62515,2.33729 c -6.94384,1.28551 -13.771385,2.51631 -15.17234,2.73512 l -2.547188,0.39782 z"
     id="path551" />
  <path
     style="opacity:0.999;fill:#ffffff;fill-opacity:0.490196;fill-rule:evenodd;stroke-width:1.37729"
     d="m 51.120595,119.1242 c -3.297713,-0.70933 -8.255955,-2.0575 -11.018318,-2.99592 l -5.022472,-1.70623 -0.251648,-14.69893 -0.251647,-14.698935 5.043787,1.702777 c 2.774085,0.936518 8.775233,2.408168 13.335893,3.27033 l 8.292112,1.56756 v 14.499378 c 0,16.68332 0.9603,15.44499 -10.127707,13.05997 z"
     id="path553" />
  <path
     style="opacity:0.999;fill:#ffffff;fill-opacity:0.490196;fill-rule:evenodd;stroke-width:1.37729"
     d="m 68.823392,152.88969 -6.656895,-0.26978 V 137.96905 123.3182 h 13.697798 c 7.533787,0 14.35137,-0.25081 15.15018,-0.55734 1.287412,-0.49402 1.45239,1.12583 1.45239,14.26081 0,11.04772 -0.292043,14.91101 -1.147748,15.18313 -1.807155,0.57469 -15.173362,0.98163 -22.495725,0.68489 z"
     id="path555" />
  <path
     style="opacity:0.999;fill:#ffffff;fill-opacity:0.490196;fill-rule:evenodd;stroke-width:1.37729"
     d="m 124.60361,131.67919 v -14.71757 l 3.44322,-0.90318 c 3.90153,-1.0234 20.50371,-5.09808 24.33212,-5.97184 l 2.52503,-0.57629 v 14.67319 14.67319 l -3.44323,0.91224 c -1.89377,0.50174 -7.98828,1.97428 -13.54334,3.27231 -5.55507,1.29804 -10.82319,2.58405 -11.70696,2.8578 -1.48419,0.45973 -1.60684,-0.62563 -1.60684,-14.21985 z"
     id="path557" />
  <path
     style="opacity:0.999;fill:#ffffff;fill-opacity:0.490196;fill-rule:evenodd;stroke-width:1.37729"
     d="m 187.03951,118.17382 0.001,-14.78541 9.41148,-0.60636 c 5.17631,-0.3335 11.99389,-0.33549 15.15018,-0.004 l 5.73871,0.60194 v 14.51745 14.51745 l -15.15141,0.27238 -15.15141,0.27238 z"
     id="path559" />
  <path
     style="opacity:0.999;fill:#ffffff;fill-opacity:0.490196;fill-rule:evenodd;stroke-width:1.37729"
     d="m 241.99094,165.53087 c -1.50078,-0.87611 -13.61667,-3.85257 -20.28843,-4.98417 l -3.44322,-0.584 v -13.3138 -13.3138 l 3.44322,0.59134 c 4.98065,0.85538 13.7847,3.03504 18.82296,4.66008 l 4.36142,1.40673 v 13.24001 c 0,7.28199 -0.30989,13.22743 -0.68865,13.21208 -0.37875,-0.0154 -1.37204,-0.42687 -2.2073,-0.91447 z"
     id="path561" />
  <path
     style="opacity:0.999;fill:#ffffff;fill-opacity:0.490196;fill-rule:evenodd;stroke-width:1.37729"
     d="m 156.02785,152.8258 0.25342,-13.41173 10.10012,-2.02516 c 5.55507,-1.11385 12.26935,-2.30391 14.92063,-2.64459 l 4.82052,-0.61941 v 13.33344 13.33343 l -4.82052,0.64141 c -2.65128,0.35279 -9.4796,1.57808 -15.17405,2.72288 l -10.35354,2.08146 z"
     id="path563" />
  <path
     style="opacity:0.999;fill:#ffffff;fill-opacity:0.490196;fill-rule:evenodd;stroke-width:1.37729"
     d="m 93.385052,166.09487 v -13.23309 l 3.902325,-0.60397 c 7.482603,-1.15809 23.715433,-4.23366 25.051753,-4.74645 1.14496,-0.43937 1.34629,1.48378 1.34629,12.86002 v 13.37664 l -3.47146,0.93476 c -3.34194,0.8999 -24.306635,4.64518 -26.001958,4.64518 -0.454822,0 -0.82695,-5.95489 -0.82695,-13.23309 z"
     id="path565" />
  <path
     style="opacity:0.999;fill:#ffffff;fill-opacity:0.490196;fill-rule:evenodd;stroke-width:1.37729"
     d="M 53.841265,178.87151 C 50.5249,178.21037 44.843582,176.78554 41.21611,175.70524 l -6.595403,-1.9642 v -13.27492 c 0,-7.3012 0.154643,-13.27491 0.343658,-13.27491 0.189007,0 2.151645,0.64432 4.361415,1.43183 2.20977,0.7875 7.11666,2.04376 10.904205,2.79168 3.787545,0.74793 7.816117,1.55763 8.952382,1.79934 2.027108,0.43122 2.065935,0.68937 2.065935,13.73579 0,7.31296 -0.309892,13.25748 -0.688642,13.21003 -0.378758,-0.0475 -3.402038,-0.62722 -6.718395,-1.28837 z"
     id="path567" />
</svg>
